<svg role="img" xmlns="http://www.w3.org/2000/svg" id="Capa_1" enable-background="new 0 0 512 512" height="50px" viewBox="0 0 512 512" width="50px" class=""><g><path d="m256 341c-35.969 0-69.38-8.484-97.839-19.696 27.772 21.672 61.721 39.696 97.839 39.696 36.259 0 70.267-18.07 98.048-39.779-28.504 11.253-61.991 19.779-98.048 19.779z" data-original="#000000" class="active-path" fill="#000000"/><path d="m411.282 256c-16.497-11.659-45.571-29.779-81.433-42.006 7.081 12.4 11.151 26.733 11.151 42.006s-4.07 29.606-11.151 42.006c35.863-12.227 64.936-30.347 81.433-42.006z" data-original="#000000" class="active-path" fill="#000000"/><path d="m171 256c0-15.273 4.07-29.606 11.151-42.006-35.863 12.227-64.937 30.347-81.434 42.006 16.493 11.656 45.567 29.779 81.434 42.006-7.081-12.4-11.151-26.732-11.151-42.006z" data-original="#000000" class="active-path" fill="#000000"/><path d="m311 256c0-30.327-24.673-55-55-55s-55 24.673-55 55 24.673 55 55 55 55-24.673 55-55zm-55 15c-8.284 0-15-6.716-15-15s6.716-15 15-15 15 6.716 15 15-6.716 15-15 15z" data-original="#000000" class="active-path" fill="#000000"/><path d="m256 171c35.968 0 69.379 8.484 97.838 19.695-27.773-21.672-61.72-39.695-97.838-39.695-36.259 0-70.267 18.07-98.048 39.779 28.504-11.253 61.991-19.779 98.048-19.779z" data-original="#000000" class="active-path" fill="#000000"/><path d="m497 0h-482c-8.284 0-15 6.716-15 15v482c0 8.284 6.716 15 15 15h482c8.284 0 15-6.716 15-15v-482c0-8.284-6.716-15-15-15zm-451 61c0-8.284 6.716-15 15-15h60c8.284 0 15 6.716 15 15s-6.716 15-15 15h-45v45c0 8.284-6.716 15-15 15s-15-6.716-15-15zm75 405h-60c-8.284 0-15-6.716-15-15v-60c0-8.284 6.716-15 15-15s15 6.716 15 15v45h45c8.284 0 15 6.716 15 15s-6.716 15-15 15zm-57.453-201.638c-3.396-5.058-3.396-11.667 0-16.725 3.473-5.17 86.267-126.637 192.453-126.637s188.979 121.467 192.452 126.638c3.397 5.058 3.397 11.667 0 16.725-3.473 5.17-86.266 126.637-192.452 126.637s-188.98-121.467-192.453-126.638zm402.453 186.638c0 8.284-6.716 15-15 15h-60c-8.284 0-15-6.716-15-15s6.716-15 15-15h45v-45c0-8.284 6.716-15 15-15s15 6.716 15 15zm0-330c0 8.284-6.716 15-15 15s-15-6.716-15-15v-45h-45c-8.284 0-15-6.716-15-15s6.716-15 15-15h60c8.284 0 15 6.716 15 15z" data-original="#000000" class="active-path" fill="#000000"/></g></svg>
