<?xml version="1.0" encoding="UTF-8" standalone="no"?>
<!-- Created with Inkscape (http://www.inkscape.org/) -->

<svg
   xmlns:dc="http://purl.org/dc/elements/1.1/"
   xmlns:cc="http://creativecommons.org/ns#"
   xmlns:rdf="http://www.w3.org/1999/02/22-rdf-syntax-ns#"
   xmlns:svg="http://www.w3.org/2000/svg"
   xmlns="http://www.w3.org/2000/svg"
   xmlns:sodipodi="http://sodipodi.sourceforge.net/DTD/sodipodi-0.dtd"
   xmlns:inkscape="http://www.inkscape.org/namespaces/inkscape"
   width="77.074638mm"
   height="127.08529mm"
   viewBox="0 0 77.074638 127.08529"
   version="1.1"
   id="svg300"
   sodipodi:docname="contact_colored.svg"
   inkscape:version="0.92.4 (5da689c313, 2019-01-14)">
  <defs
     id="defs294" />
  <sodipodi:namedview
     id="base"
     pagecolor="#ffffff"
     bordercolor="#666666"
     borderopacity="1.0"
     inkscape:pageopacity="0.0"
     inkscape:pageshadow="2"
     inkscape:zoom="1.4"
     inkscape:cx="173.52735"
     inkscape:cy="264.29016"
     inkscape:document-units="mm"
     inkscape:current-layer="layer1"
     showgrid="false"
     inkscape:window-width="1920"
     inkscape:window-height="1001"
     inkscape:window-x="-9"
     inkscape:window-y="-9"
     inkscape:window-maximized="1" />
  <metadata
     id="metadata297">
    <rdf:RDF>
      <cc:Work
         rdf:about="">
        <dc:format>image/svg+xml</dc:format>
        <dc:type
           rdf:resource="http://purl.org/dc/dcmitype/StillImage" />
        <dc:title></dc:title>
      </cc:Work>
    </rdf:RDF>
  </metadata>
  <g
     inkscape:label="Camada 1"
     inkscape:groupmode="layer"
     id="layer1"
     transform="translate(-12.111463,-164.66569)">
    <path
       inkscape:connector-curvature="0"
       style="fill:#06231a;fill-opacity:1;stroke-width:0.26458332"
       d="m 70.958975,164.66569 h -10e-6 c -6.35847,0 -11.51302,5.72042 -11.51302,12.77692 v 8.96535 h 2.75733 l 1.59634,-3.32173 -0.39909,3.32173 h 17.723068 l 1.451218,-3.01976 -0.362799,3.01976 h 1.995424 v -7.03941 c 0,-8.12015 -5.931538,-14.70286 -13.248461,-14.70286 z"
       id="path213" />
    <path
       inkscape:connector-curvature="0"
       style="fill:#06231a;fill-opacity:1;stroke-width:0.26458332"
       d="m 57.767085,223.24055 -7.0689,3.00428 -24.56441,19.96963 a 7.2299804,7.2299804 0 0 0 -1.5905,3.88789 c -0.17673,2.29738 -7.59907,14.31452 -4.94824,15.90501 2.65082,1.5905 12.19385,6.36201 12.72401,3.18101 0.53016,-3.18101 3.35773,-16.78863 3.35773,-16.78863 l 23.6808,-21.20668 z"
       id="path215" />
    <path
       inkscape:connector-curvature="0"
       style="fill:#265b4a;fill-opacity:1;stroke-width:0.26458332"
       d="m 30.021665,266.53753 -3.00428,8.83612 c 0,0 3.18101,3.35773 1.5905,6.18528 v 9.71974 h -2.47412 l -0.70689,-5.12495 c 0,0 -2.81802,5.0602 -4.24133,5.12495 -2.98375,0.13573 -8.89245,1.19706 -9.06917,-0.39344 -0.17672,-1.5905 4.47439,-3.14101 4.47439,-3.14101 l 4.94823,-13.60763 2.12067,-8.30595 z"
       id="path217" />
    <path
       inkscape:connector-curvature="0"
       style="fill:#06231a;fill-opacity:1;stroke-width:0.26458332"
       d="m 76.146215,220.94316 c 0,0 1.590496,15.55157 -3.00428,18.37913 -4.59478,2.82755 -24.91787,11.8404 -24.91787,11.8404 0,0 8.6594,8.12923 6.89218,10.07317 -1.76723,1.94395 -9.71974,7.24561 -10.78007,6.18528 -1.06034,-1.06033 -12.90074,-13.78434 -11.48696,-17.84895 1.41378,-4.06462 21.02997,-17.3188 21.02997,-17.3188 l 2.29738,-8.30595 0.70689,-6.71545 7.42233,-4.7715 z"
       id="path219" />
    <circle
       style="fill:#ffd6d6;fill-opacity:1;stroke-width:0.26458332"
       cx="-68.049698"
       cy="177.36789"
       r="7.3672595"
       id="circle221"
       transform="scale(-1,1)" />
    <path
       inkscape:connector-curvature="0"
       style="fill:#ffd6d6;fill-opacity:1;stroke-width:0.26458332"
       d="m 73.760455,180.38536 c 0,0 -0.35344,6.71545 5.124953,8.83612 5.478394,2.12067 -13.607623,15.90502 -13.607623,15.90502 v -15.37484 c 0,0 2.47412,-2.65084 0,-6.71545 z"
       id="path223" />
    <path
       inkscape:connector-curvature="0"
       style="fill:#ffd6d6;fill-opacity:1;stroke-width:0.26458332"
       d="m 85.512498,211.93031 -1.413779,6.89217 -4.241335,23.68081 c 0,0 3.534447,10.07318 -1.237057,9.89645 -4.771502,-0.17672 -2.474122,-10.95678 -2.474122,-10.95678 l 2.474122,-19.61619 v -7.59906 z"
       id="path225" />
    <path
       inkscape:connector-curvature="0"
       style="fill:#ffd6d6;fill-opacity:1;stroke-width:0.26458332"
       d="m 55.116245,208.57259 -1.5905,6.18528 -7.24561,17.49552 c 0,0 -4.94824,8.30595 -0.88362,8.12923 4.06463,-0.17672 4.06462,-8.12923 4.06462,-8.12923 l 8.30595,-14.13779 v -7.95251 z"
       id="path227" />
    <path
       inkscape:connector-curvature="0"
       style="fill:#265b4a;fill-opacity:1;stroke-width:0.26458332"
       d="m 53.879195,260.17553 5.83183,5.47839 c 0,0 4.06462,-0.88361 5.65512,3.88789 1.5905,4.77151 2.65084,7.77579 2.65084,7.77579 l -2.12067,1.23705 -2.65084,-3.71117 c 0,0 -1.5905,6.71545 -3.181,7.24562 -1.5905,0.53016 -9.54301,4.06461 -8.83612,0 l 3.88789,-5.65512 c 0,0 0.53017,-6.362 -1.06033,-6.89217 -1.59051,-0.53017 -5.83185,-5.83183 -5.83185,-5.83183 z"
       id="path229" />
    <path
       inkscape:connector-curvature="0"
       style="fill:#265b4a;fill-opacity:1;stroke-width:0.26458332"
       d="m 76.426365,226.42154 c 0,0 -16.61191,-6.00856 -17.67224,-5.47839 a 7.969414,7.969414 0 0 1 -2.48918,0.64605 l 0.0151,-2.41328 c 0,0 5.47839,-1.94394 8.48267,-0.70689 3.00429,1.23706 12.19385,6.71545 12.19385,6.71545 z"
       id="path231" />
    <path
       inkscape:connector-curvature="0"
       style="fill:#da817f;fill-opacity:1;stroke-width:0.26458332"
       d="m 66.338115,201.59206 c 0,0 4.7715,-5.4784 6.18529,-8.83612 a 8.6758701,8.6758701 0 0 1 4.58663,-4.51014 c 0,0 10.611493,2.38946 10.43477,6.63081 -0.176723,4.24135 -6.71545,10.78006 -6.71545,10.78006 0,0 0.88361,23.50408 -3.88789,23.15063 a 10.234702,10.234702 0 0 1 -2.12067,-4.24133 c -0.53017,-2.47412 -16.96535,-5.12495 -16.96535,-5.12495 0,0 -1.41378,2.47412 -1.5905,1.41378 -0.17673,-1.06034 1.41378,-27.03853 1.41378,-27.03853 l 8.42735,-5.57047 z"
       id="path233" />
    <path
       inkscape:connector-curvature="0"
       style="fill:#da817f;fill-opacity:1;stroke-width:0.26458332"
       d="m 86.183511,193.1694 0.118335,0.0664 a 2.4381142,2.4381142 0 0 1 1.244944,2.12654 l -0.0018,13.11509 a 2.457368,2.457368 0 0 0 0.874156,1.87029 c 0.680752,0.57904 1.312022,1.41342 0.0093,1.84767 -2.120669,0.70689 -10.426623,4.24134 -10.603344,3.00428 -0.176724,-1.23705 -0.530164,-2.65083 0,-2.65083 0.415052,0 2.888026,-12.67245 4.875092,-18.0907 a 2.4385191,2.4385191 0 0 1 3.483343,-1.28875 z"
       id="path235" />
    <path
       inkscape:connector-curvature="0"
       style="fill:#da817f;fill-opacity:1;stroke-width:0.26458332"
       d="m 60.064475,193.19774 -2.47412,0.70689 -2.82756,12.19385 c 0,0 -3.35772,0.70689 -2.29738,1.94395 1.06035,1.23706 5.47838,4.41805 5.47838,4.41805 z"
       id="path237" />
    <path
       inkscape:connector-curvature="0"
       style="fill:#06231a;fill-opacity:1;stroke-width:0.26458332"
       d="m 74.231915,168.18531 a 6.0380245,6.0380245 0 0 0 -4.76418,-2.4312 h -0.22603 c -4.35811,0 -7.89103,3.94358 -7.89103,8.80825 v 10e-6 h 1.46029 l 0.23583,-1.79507 0.34577,1.79507 h 8.66088 l 0.72561,-1.51866 -0.18141,1.51866 h 1.70385 q 1.1926,5.9228 -3.42717,11.8456 h 2.90246 l 1.45121,-3.03734 -0.3628,3.03734 h 5.532783 l 1.088419,-6.98589 c -2e-6,-5.23177 -3.039819,-9.6682 -7.254482,-11.23677 z"
       id="path239" />
  </g>
</svg>
